<svg xmlns="http://www.w3.org/2000/svg" version="1.1" xmlns:xlink="http://www.w3.org/1999/xlink" xmlns:svgjs="http://svgjs.dev/svgjs" viewBox="0 0 800 800"><g fill="none" stroke-width="2.25" stroke="hsl(335, 77%, 50%)" stroke-linecap="round"><line x1="475.5" y1="400" x2="324.5" y2="400" transform="rotate(0, 400, 400)" opacity="0.53"></line><line x1="280.5" y1="400" x2="519.5" y2="400" transform="rotate(3, 400, 400)" opacity="0.97"></line><line x1="237" y1="400" x2="563" y2="400" transform="rotate(6, 400, 400)" opacity="0.08"></line><line x1="83.5" y1="400" x2="716.5" y2="400" transform="rotate(9, 400, 400)" opacity="0.72"></line><line x1="-14.5" y1="400" x2="814.5" y2="400" transform="rotate(12, 400, 400)" opacity="0.88"></line><line x1="20" y1="400" x2="780" y2="400" transform="rotate(15, 400, 400)" opacity="0.86"></line><line x1="24.5" y1="400" x2="775.5" y2="400" transform="rotate(18, 400, 400)" opacity="0.69"></line><line x1="392.5" y1="400" x2="407.5" y2="400" transform="rotate(21, 400, 400)" opacity="0.27"></line><line x1="421.5" y1="400" x2="378.5" y2="400" transform="rotate(24, 400, 400)" opacity="0.07"></line><line x1="-57" y1="400" x2="857" y2="400" transform="rotate(27, 400, 400)" opacity="0.15"></line><line x1="489.5" y1="400" x2="310.5" y2="400" transform="rotate(30, 400, 400)" opacity="0.12"></line><line x1="447" y1="400" x2="353" y2="400" transform="rotate(33, 400, 400)" opacity="0.37"></line><line x1="159.5" y1="400" x2="640.5" y2="400" transform="rotate(36, 400, 400)" opacity="0.56"></line><line x1="422.5" y1="400" x2="377.5" y2="400" transform="rotate(39, 400, 400)" opacity="0.81"></line><line x1="322" y1="400" x2="478" y2="400" transform="rotate(42, 400, 400)" opacity="0.24"></line><line x1="280.5" y1="400" x2="519.5" y2="400" transform="rotate(45, 400, 400)" opacity="0.83"></line><line x1="300" y1="400" x2="500" y2="400" transform="rotate(48, 400, 400)" opacity="0.78"></line><line x1="79.5" y1="400" x2="720.5" y2="400" transform="rotate(51, 400, 400)" opacity="0.89"></line><line x1="-4.5" y1="400" x2="804.5" y2="400" transform="rotate(54, 400, 400)" opacity="0.41"></line><line x1="291" y1="400" x2="509" y2="400" transform="rotate(57, 400, 400)" opacity="0.52"></line><line x1="49" y1="400" x2="751" y2="400" transform="rotate(60, 400, 400)" opacity="0.99"></line><line x1="-67.5" y1="400" x2="867.5" y2="400" transform="rotate(63, 400, 400)" opacity="0.30"></line><line x1="523.5" y1="400" x2="276.5" y2="400" transform="rotate(66, 400, 400)" opacity="0.09"></line><line x1="255" y1="400" x2="545" y2="400" transform="rotate(69, 400, 400)" opacity="0.10"></line><line x1="50" y1="400" x2="750" y2="400" transform="rotate(72, 400, 400)" opacity="0.08"></line><line x1="206.5" y1="400" x2="593.5" y2="400" transform="rotate(75, 400, 400)" opacity="0.35"></line><line x1="501.5" y1="400" x2="298.5" y2="400" transform="rotate(78, 400, 400)" opacity="0.96"></line><line x1="219.5" y1="400" x2="580.5" y2="400" transform="rotate(81, 400, 400)" opacity="1.00"></line><line x1="354.5" y1="400" x2="445.5" y2="400" transform="rotate(84, 400, 400)" opacity="0.64"></line><line x1="292.5" y1="400" x2="507.5" y2="400" transform="rotate(87, 400, 400)" opacity="0.53"></line><line x1="499.5" y1="400" x2="300.5" y2="400" transform="rotate(90, 400, 400)" opacity="0.12"></line><line x1="0.5" y1="400" x2="799.5" y2="400" transform="rotate(93, 400, 400)" opacity="0.86"></line><line x1="149" y1="400" x2="651" y2="400" transform="rotate(96, 400, 400)" opacity="0.35"></line><line x1="-37" y1="400" x2="837" y2="400" transform="rotate(99, 400, 400)" opacity="0.48"></line><line x1="142.5" y1="400" x2="657.5" y2="400" transform="rotate(102, 400, 400)" opacity="0.83"></line><line x1="314.5" y1="400" x2="485.5" y2="400" transform="rotate(105, 400, 400)" opacity="0.51"></line><line x1="412" y1="400" x2="388" y2="400" transform="rotate(108, 400, 400)" opacity="0.53"></line><line x1="177.5" y1="400" x2="622.5" y2="400" transform="rotate(111, 400, 400)" opacity="0.64"></line><line x1="493.5" y1="400" x2="306.5" y2="400" transform="rotate(114, 400, 400)" opacity="0.40"></line><line x1="379.5" y1="400" x2="420.5" y2="400" transform="rotate(117, 400, 400)" opacity="0.07"></line><line x1="406" y1="400" x2="394" y2="400" transform="rotate(120, 400, 400)" opacity="0.20"></line><line x1="251.5" y1="400" x2="548.5" y2="400" transform="rotate(123, 400, 400)" opacity="0.76"></line><line x1="-13" y1="400" x2="813" y2="400" transform="rotate(126, 400, 400)" opacity="0.72"></line><line x1="311" y1="400" x2="489" y2="400" transform="rotate(129, 400, 400)" opacity="0.96"></line><line x1="9.5" y1="400" x2="790.5" y2="400" transform="rotate(132, 400, 400)" opacity="0.84"></line><line x1="398" y1="400" x2="402" y2="400" transform="rotate(135, 400, 400)" opacity="0.64"></line><line x1="40" y1="400" x2="760" y2="400" transform="rotate(138, 400, 400)" opacity="0.20"></line><line x1="139" y1="400" x2="661" y2="400" transform="rotate(141, 400, 400)" opacity="0.93"></line><line x1="524.5" y1="400" x2="275.5" y2="400" transform="rotate(144, 400, 400)" opacity="0.50"></line><line x1="231" y1="400" x2="569" y2="400" transform="rotate(147, 400, 400)" opacity="0.86"></line><line x1="266" y1="400" x2="534" y2="400" transform="rotate(150, 400, 400)" opacity="0.17"></line><line x1="438.5" y1="400" x2="361.5" y2="400" transform="rotate(153, 400, 400)" opacity="0.86"></line><line x1="32" y1="400" x2="768" y2="400" transform="rotate(156, 400, 400)" opacity="0.55"></line><line x1="81.5" y1="400" x2="718.5" y2="400" transform="rotate(159, 400, 400)" opacity="0.16"></line><line x1="58" y1="400" x2="742" y2="400" transform="rotate(162, 400, 400)" opacity="0.34"></line><line x1="375" y1="400" x2="425" y2="400" transform="rotate(165, 400, 400)" opacity="0.56"></line><line x1="387.5" y1="400" x2="412.5" y2="400" transform="rotate(168, 400, 400)" opacity="0.97"></line><line x1="468.5" y1="400" x2="331.5" y2="400" transform="rotate(171, 400, 400)" opacity="0.30"></line><line x1="146" y1="400" x2="654" y2="400" transform="rotate(174, 400, 400)" opacity="0.67"></line><line x1="-47" y1="400" x2="847" y2="400" transform="rotate(177, 400, 400)" opacity="0.70"></line><line x1="502" y1="400" x2="298" y2="400" transform="rotate(180, 400, 400)" opacity="0.32"></line><line x1="357" y1="400" x2="443" y2="400" transform="rotate(183, 400, 400)" opacity="0.53"></line><line x1="253" y1="400" x2="547" y2="400" transform="rotate(186, 400, 400)" opacity="0.95"></line><line x1="308.5" y1="400" x2="491.5" y2="400" transform="rotate(189, 400, 400)" opacity="0.09"></line><line x1="357.5" y1="400" x2="442.5" y2="400" transform="rotate(192, 400, 400)" opacity="0.90"></line><line x1="524" y1="400" x2="276" y2="400" transform="rotate(195, 400, 400)" opacity="0.43"></line><line x1="8.5" y1="400" x2="791.5" y2="400" transform="rotate(198, 400, 400)" opacity="0.47"></line><line x1="88" y1="400" x2="712" y2="400" transform="rotate(201, 400, 400)" opacity="0.27"></line><line x1="345" y1="400" x2="455" y2="400" transform="rotate(204, 400, 400)" opacity="0.75"></line><line x1="454" y1="400" x2="346" y2="400" transform="rotate(207, 400, 400)" opacity="0.73"></line><line x1="302.5" y1="400" x2="497.5" y2="400" transform="rotate(210, 400, 400)" opacity="0.50"></line><line x1="483" y1="400" x2="317" y2="400" transform="rotate(213, 400, 400)" opacity="0.93"></line><line x1="403.5" y1="400" x2="396.5" y2="400" transform="rotate(216, 400, 400)" opacity="0.30"></line><line x1="261.5" y1="400" x2="538.5" y2="400" transform="rotate(219, 400, 400)" opacity="0.91"></line><line x1="263.5" y1="400" x2="536.5" y2="400" transform="rotate(222, 400, 400)" opacity="0.79"></line><line x1="315.5" y1="400" x2="484.5" y2="400" transform="rotate(225, 400, 400)" opacity="0.45"></line><line x1="316" y1="400" x2="484" y2="400" transform="rotate(228, 400, 400)" opacity="0.29"></line><line x1="289" y1="400" x2="511" y2="400" transform="rotate(231, 400, 400)" opacity="0.43"></line><line x1="285" y1="400" x2="515" y2="400" transform="rotate(234, 400, 400)" opacity="0.39"></line><line x1="145" y1="400" x2="655" y2="400" transform="rotate(237, 400, 400)" opacity="0.40"></line><line x1="347" y1="400" x2="453" y2="400" transform="rotate(240, 400, 400)" opacity="0.09"></line><line x1="22" y1="400" x2="778" y2="400" transform="rotate(243, 400, 400)" opacity="0.59"></line><line x1="-81" y1="400" x2="881" y2="400" transform="rotate(246, 400, 400)" opacity="0.25"></line><line x1="325" y1="400" x2="475" y2="400" transform="rotate(249, 400, 400)" opacity="0.52"></line><line x1="448" y1="400" x2="352" y2="400" transform="rotate(252, 400, 400)" opacity="0.62"></line><line x1="38" y1="400" x2="762" y2="400" transform="rotate(255, 400, 400)" opacity="0.53"></line><line x1="-10.5" y1="400" x2="810.5" y2="400" transform="rotate(258, 400, 400)" opacity="0.85"></line><line x1="519.5" y1="400" x2="280.5" y2="400" transform="rotate(261, 400, 400)" opacity="0.44"></line><line x1="292" y1="400" x2="508" y2="400" transform="rotate(264, 400, 400)" opacity="0.13"></line><line x1="183.5" y1="400" x2="616.5" y2="400" transform="rotate(267, 400, 400)" opacity="0.53"></line><line x1="294.5" y1="400" x2="505.5" y2="400" transform="rotate(270, 400, 400)" opacity="0.25"></line><line x1="517" y1="400" x2="283" y2="400" transform="rotate(273, 400, 400)" opacity="0.14"></line><line x1="311.5" y1="400" x2="488.5" y2="400" transform="rotate(276, 400, 400)" opacity="0.29"></line><line x1="117" y1="400" x2="683" y2="400" transform="rotate(279, 400, 400)" opacity="0.34"></line><line x1="340" y1="400" x2="460" y2="400" transform="rotate(282, 400, 400)" opacity="0.42"></line><line x1="109.5" y1="400" x2="690.5" y2="400" transform="rotate(285, 400, 400)" opacity="0.57"></line><line x1="349" y1="400" x2="451" y2="400" transform="rotate(288, 400, 400)" opacity="0.24"></line><line x1="200.5" y1="400" x2="599.5" y2="400" transform="rotate(291, 400, 400)" opacity="0.22"></line><line x1="-64" y1="400" x2="864" y2="400" transform="rotate(294, 400, 400)" opacity="0.59"></line><line x1="153" y1="400" x2="647" y2="400" transform="rotate(297, 400, 400)" opacity="0.33"></line><line x1="79" y1="400" x2="721" y2="400" transform="rotate(300, 400, 400)" opacity="0.19"></line><line x1="414.5" y1="400" x2="385.5" y2="400" transform="rotate(303, 400, 400)" opacity="0.37"></line><line x1="500.5" y1="400" x2="299.5" y2="400" transform="rotate(306, 400, 400)" opacity="0.21"></line><line x1="208" y1="400" x2="592" y2="400" transform="rotate(309, 400, 400)" opacity="0.43"></line><line x1="492.5" y1="400" x2="307.5" y2="400" transform="rotate(312, 400, 400)" opacity="0.85"></line><line x1="7.5" y1="400" x2="792.5" y2="400" transform="rotate(315, 400, 400)" opacity="0.27"></line><line x1="329" y1="400" x2="471" y2="400" transform="rotate(318, 400, 400)" opacity="0.15"></line><line x1="144" y1="400" x2="656" y2="400" transform="rotate(321, 400, 400)" opacity="0.13"></line><line x1="264.5" y1="400" x2="535.5" y2="400" transform="rotate(324, 400, 400)" opacity="0.26"></line><line x1="343" y1="400" x2="457" y2="400" transform="rotate(327, 400, 400)" opacity="0.59"></line><line x1="518" y1="400" x2="282" y2="400" transform="rotate(330, 400, 400)" opacity="0.81"></line><line x1="238.5" y1="400" x2="561.5" y2="400" transform="rotate(333, 400, 400)" opacity="0.80"></line><line x1="439.5" y1="400" x2="360.5" y2="400" transform="rotate(336, 400, 400)" opacity="0.67"></line><line x1="334.5" y1="400" x2="465.5" y2="400" transform="rotate(339, 400, 400)" opacity="0.89"></line><line x1="209.5" y1="400" x2="590.5" y2="400" transform="rotate(342, 400, 400)" opacity="0.43"></line><line x1="249.5" y1="400" x2="550.5" y2="400" transform="rotate(345, 400, 400)" opacity="0.78"></line><line x1="459.5" y1="400" x2="340.5" y2="400" transform="rotate(348, 400, 400)" opacity="0.15"></line><line x1="243.5" y1="400" x2="556.5" y2="400" transform="rotate(351, 400, 400)" opacity="0.86"></line><line x1="-37.5" y1="400" x2="837.5" y2="400" transform="rotate(354, 400, 400)" opacity="0.94"></line><line x1="283" y1="400" x2="517" y2="400" transform="rotate(357, 400, 400)" opacity="0.71"></line><line x1="247.5" y1="400" x2="552.5" y2="400" transform="rotate(360, 400, 400)" opacity="0.46"></line><line x1="203" y1="400" x2="597" y2="400" transform="rotate(363, 400, 400)" opacity="0.40"></line><line x1="99.5" y1="400" x2="700.5" y2="400" transform="rotate(366, 400, 400)" opacity="0.37"></line><line x1="180" y1="400" x2="620" y2="400" transform="rotate(369, 400, 400)" opacity="0.66"></line><line x1="138.5" y1="400" x2="661.5" y2="400" transform="rotate(372, 400, 400)" opacity="0.07"></line></g></svg>